<svg xmlns="http://www.w3.org/2000/svg" xmlns:xlink="http://www.w3.org/1999/xlink" width="150" height="150" viewBox="0 0 150 150"><defs><linearGradient id="a" x1="25.8" y1="25.8" x2="124.04" y2="124.04" gradientUnits="userSpaceOnUse"><stop offset="0" stop-color="#eff0f6"/><stop offset="1" stop-color="#a5a5aa"/></linearGradient><clipPath id="b"><path d="M128.47,112.37a12.49,12.49,0,0,0,5.63-9.75V47.38a12.49,12.49,0,0,0-5.63-9.75L80.64,10a12.5,12.5,0,0,0-11.27,0L21.54,37.63a12.49,12.49,0,0,0-5.63,9.75v55.24a12.49,12.49,0,0,0,5.63,9.75L69.37,140a12.5,12.5,0,0,0,11.27,0Z" fill="none"/></clipPath></defs><title>Untitled-2</title><path d="M132.8,30.12,85,2.5A21.15,21.15,0,0,0,65,2.5L17.2,30.12a21.1,21.1,0,0,0-10,17.26v55.24a21.09,21.09,0,0,0,10,17.26L65,147.5a21.13,21.13,0,0,0,19.94,0l47.83-27.62a21.09,21.09,0,0,0,10-17.26V47.38A21.09,21.09,0,0,0,132.8,30.12Zm-8.7,74.76L76.34,132.45a4.66,4.66,0,0,1-2.64,0L25.91,104.89a4.7,4.7,0,0,1-1.34-2.27V47.43a4.64,4.64,0,0,1,1.3-2.29L73.66,17.55A3.65,3.65,0,0,1,75,17.34a3.53,3.53,0,0,1,1.27.18l47.79,27.59a4.7,4.7,0,0,1,1.34,2.27v55.19A4.67,4.67,0,0,1,124.1,104.88Z" fill="url(#a)"/><path d="M75,116l-54.7-4.49,53.86,32.33h0a1.52,1.52,0,0,0,1.67,0h0L129.7,111.5Z" fill="#080d05"/><g clip-path="url(#b)"><polygon points="75 115.98 15.91 109.12 75 143.24 134.1 109.12 75 115.98" fill="#080d05"/><polygon points="75 6.76 15.91 40.88 39.18 53.92 75 6.76" fill="#b6da9d"/><polygon points="134.1 40.88 75 6.76 110.83 53.92 134.1 40.88" fill="#66a23c"/><polygon points="15.91 109.12 75 141.07 75 115.98 15.91 109.12" fill="#375721"/><polygon points="15.91 40.88 15.91 109.12 39.18 53.92 15.91 40.88" fill="#88c35f"/><polygon points="110.83 53.92 134.1 109.12 134.1 40.88 110.83 53.92" fill="#3f6425"/><polygon points="75 141.07 134.1 109.12 75 115.98 75 141.07" fill="#283f17"/><polygon points="75 115.98 110.83 53.92 39.18 53.92 75 115.98" fill="#76ba46"/><polygon points="110.83 53.92 75 6.76 39.18 53.92 110.83 53.92" fill="#9bcc78"/><polygon points="110.83 53.92 75 115.98 134.1 109.12 110.83 53.92" fill="#578933"/><polygon points="39.18 53.92 15.91 109.12 75 115.98 39.18 53.92" fill="#5e9538"/></g><path d="M75.85,143.82h0Z" fill="#5f1c00"/><path d="M74.16,143.82h0Z" fill="#5f1c00"/></svg>